<svg id="Layer_1" data-name="Layer 1" xmlns="http://www.w3.org/2000/svg" viewBox="0 0 205.84 26.54"><defs><style>.cls-1{fill:#797d82;}.cls-2{fill:#fa8d29;}</style></defs><title>CyLab Logo Horizontal</title><path class="cls-1" d="M19.41,18.73a9.62,9.62,0,0,1-7.06,2.6C6.12,21.34,1.5,16.67,1.5,11.16A10.16,10.16,0,0,1,12,1c4.28,0,6.78,2.16,7.24,2.81L17.33,6.29a7.62,7.62,0,0,0-5.49-2c-3.79,0-6.42,3-6.42,7a6.86,6.86,0,0,0,7,6.78,7.93,7.93,0,0,0,5.36-1.7Z" transform="translate(-1.5 -0.95)"/><path class="cls-1" d="M19.08,27.5l4.77-8.4L18.25,7.73H22l3.58,8.17,3.87-8.17h3.74L22.79,27.5Z" transform="translate(-1.5 -0.95)"/><path class="cls-1" d="M34.85,20.87V1.39h3.66V17.55h8.14v3.32Z" transform="translate(-1.5 -0.95)"/><path class="cls-1" d="M59.59,19.66a9.63,9.63,0,0,1-6,1.62c-4,0-5.9-2.24-5.9-4.79,0-3,2.89-4.15,5.36-4.15a6.72,6.72,0,0,1,3.3.88V11.88c0-1.08-.8-1.83-2.6-1.83a9.49,9.49,0,0,0-3.66.77l-1-2.37A11.2,11.2,0,0,1,54,7.34c4.38,0,5.54,2.09,5.54,5.33Zm-3.22-4a4.61,4.61,0,0,0-2.73-1c-1.29,0-2.45.64-2.45,1.8,0,1.37,1,2.24,2.68,2.24a5.21,5.21,0,0,0,2.5-.54Z" transform="translate(-1.5 -0.95)"/><path class="cls-1" d="M62.6,1.4H66v7a7.73,7.73,0,0,1,3.45-1c4.33,0,6.24,3.38,6.24,6.88,0,4.61-3.58,7.06-7.32,7.06a10.43,10.43,0,0,1-5.77-1.6ZM66,18a4.42,4.42,0,0,0,2.37.52c2.27,0,3.76-1.57,3.76-4.28,0-2.09-1.11-4.07-3.25-4.07A4.77,4.77,0,0,0,66,11.21Z" transform="translate(-1.5 -0.95)"/><ellipse class="cls-2" cx="10.84" cy="10.16" rx="3.59" ry="3.45"/><path class="cls-1" d="M83.19,19.3a2.61,2.61,0,0,0,1.7.72c.67,0,1-.32,1-.8C85.93,17.82,83,18,83,16a1.94,1.94,0,0,1,2.16-1.81A2.8,2.8,0,0,1,87,15l-.6.93a1.91,1.91,0,0,0-1.27-.59c-.45,0-.87.19-.87.65,0,1.16,3,.9,3,3.24,0,1-.9,1.93-2.45,1.93a3.51,3.51,0,0,1-2.26-.95Z" transform="translate(-1.5 -0.95)"/><path class="cls-1" d="M92.5,20.56a3.16,3.16,0,0,1-1.92.55,2.27,2.27,0,0,1-2.47-2.35,2.31,2.31,0,0,1,2.39-2.38,2.14,2.14,0,0,1,2.17,2.36v.44h-3.4c.12.83.87,1,1.57,1a2.06,2.06,0,0,0,1.33-.44Zm-1-2.24a1,1,0,0,0-1-1,1.21,1.21,0,0,0-1.24,1Z" transform="translate(-1.5 -0.95)"/><path class="cls-1" d="M97.53,20.5a2.54,2.54,0,0,1-1.78.61,2.31,2.31,0,0,1-2.32-2.36,2.35,2.35,0,0,1,2.44-2.37,2.54,2.54,0,0,1,1.5.51l-.39.82a1.71,1.71,0,0,0-1.06-.39,1.44,1.44,0,0,0,0,2.87,2,2,0,0,0,1.25-.47Z" transform="translate(-1.5 -0.95)"/><path class="cls-1" d="M101.29,16.52h1.15v4a2.89,2.89,0,0,1-2,.62c-1.19,0-2-.58-2-1.73V16.52h1.15v2.61c0,.87.49,1.08,1,1.08a1.22,1.22,0,0,0,.73-.21Z" transform="translate(-1.5 -0.95)"/><path class="cls-1" d="M103.71,21V16.52h1.14v.71c.1-.23.46-.83,1-.83a1.45,1.45,0,0,1,.8.22l-.39,1.08a1,1,0,0,0-.61-.23c-.51,0-.78.61-.78,1.06V21Z" transform="translate(-1.5 -0.95)"/><path class="cls-1" d="M107.3,15.06a.69.69,0,0,1,.72-.72.72.72,0,1,1,0,1.43A.69.69,0,0,1,107.3,15.06Zm.15,5.93V16.52h1.15V21Z" transform="translate(-1.5 -0.95)"/><path class="cls-1" d="M110.39,21V17.42h-.85v-.9h.85V15h1.15v1.51h1.1v.9h-1.1V21Z" transform="translate(-1.5 -0.95)"/><path class="cls-1" d="M113.15,23.22l1.62-2.85-1.9-3.86h1.27l1.22,2.77,1.31-2.77h1.27l-3.52,6.71Z" transform="translate(-1.5 -0.95)"/><path class="cls-1" d="M124.59,20.56a3.27,3.27,0,0,1-2,.55c-1.37,0-2-.76-2-1.63,0-1,1-1.41,1.82-1.41a2.28,2.28,0,0,1,1.12.3v-.46c0-.37-.27-.62-.88-.62a3.19,3.19,0,0,0-1.24.26l-.33-.8a3.79,3.79,0,0,1,1.67-.38c1.49,0,1.88.71,1.88,1.81Zm-1.09-1.35a1.56,1.56,0,0,0-.93-.32c-.44,0-.83.22-.83.61s.35.76.91.76a1.77,1.77,0,0,0,.85-.18Z" transform="translate(-1.5 -0.95)"/><path class="cls-1" d="M128.71,21V18.6c0-.73-.1-1.21-.79-1.21a1.37,1.37,0,0,0-1,.5V21h-1.15V16.52H127V17a2.12,2.12,0,0,1,1.42-.59c1,0,1.47.49,1.47,1.61v3Z" transform="translate(-1.5 -0.95)"/><path class="cls-1" d="M134.17,13.81h1.15v6.76a3.79,3.79,0,0,1-2,.54,2.37,2.37,0,1,1-.12-4.73,1.75,1.75,0,0,1,.95.26Zm0,3.86a1.34,1.34,0,0,0-.91-.34c-.72,0-1.17.6-1.17,1.47a1.29,1.29,0,0,0,1.26,1.37,1.59,1.59,0,0,0,.82-.19Z" transform="translate(-1.5 -0.95)"/><path class="cls-1" d="M139.05,21V14.36h1.48c1.66,0,2.87.5,2.87,2.13,0,1.32-.84,2.19-2.64,2.19h-.46V21Zm1.68-3.42c.91,0,1.35-.41,1.35-1.07s-.38-1-1.21-1h-.58v2.07Z" transform="translate(-1.5 -0.95)"/><path class="cls-1" d="M144.35,21V16.52h1.14v.71c.1-.23.46-.83,1-.83a1.45,1.45,0,0,1,.8.22l-.39,1.08a1,1,0,0,0-.61-.23c-.51,0-.78.61-.78,1.06V21Z" transform="translate(-1.5 -0.95)"/><path class="cls-1" d="M147.94,15.06a.69.69,0,0,1,.72-.72.72.72,0,1,1,0,1.43A.69.69,0,0,1,147.94,15.06Zm.15,5.93V16.52h1.15V21Z" transform="translate(-1.5 -0.95)"/><path class="cls-1" d="M152.09,21.07l-2.14-4.56h1.24l.95,2.2a4.83,4.83,0,0,1,.23.59h0a5.73,5.73,0,0,1,.22-.59l.93-2.2h1.23l-2.1,4.56Z" transform="translate(-1.5 -0.95)"/><path class="cls-1" d="M159,20.56a3.27,3.27,0,0,1-2,.55c-1.37,0-2-.76-2-1.63,0-1,1-1.41,1.82-1.41a2.28,2.28,0,0,1,1.12.3v-.46c0-.37-.27-.62-.88-.62a3.19,3.19,0,0,0-1.24.26l-.33-.8a3.79,3.79,0,0,1,1.67-.38c1.49,0,1.88.71,1.88,1.81Zm-1.09-1.35a1.56,1.56,0,0,0-.93-.32c-.44,0-.83.22-.83.61s.35.76.91.76a1.77,1.77,0,0,0,.85-.18Z" transform="translate(-1.5 -0.95)"/><path class="cls-1" d="M164.11,20.5a2.54,2.54,0,0,1-1.78.61A2.31,2.31,0,0,1,160,18.75a2.35,2.35,0,0,1,2.44-2.37,2.54,2.54,0,0,1,1.5.51l-.39.82a1.71,1.71,0,0,0-1.06-.39,1.44,1.44,0,0,0,0,2.87,2,2,0,0,0,1.25-.47Z" transform="translate(-1.5 -0.95)"/><path class="cls-1" d="M164.71,23.22l1.62-2.85-1.9-3.86h1.27l1.22,2.77,1.31-2.77h1.27L166,23.22Z" transform="translate(-1.5 -0.95)"/><path class="cls-1" d="M172.6,21V14.36h1.24V21Z" transform="translate(-1.5 -0.95)"/><path class="cls-1" d="M178.14,21V18.6c0-.73-.1-1.21-.79-1.21a1.37,1.37,0,0,0-1,.5V21h-1.15V16.52h1.15V17a2.12,2.12,0,0,1,1.42-.59c1,0,1.47.49,1.47,1.61v3Z" transform="translate(-1.5 -0.95)"/><path class="cls-1" d="M180.58,19.73a2.07,2.07,0,0,0,1.23.53c.27,0,.59-.11.59-.51,0-.6-1.92-.89-1.92-2.06A1.43,1.43,0,0,1,182,16.37a2.4,2.4,0,0,1,1.53.51l-.41.79a1.49,1.49,0,0,0-.92-.43c-.3,0-.55.15-.55.4,0,.68,1.89.82,1.89,2.08,0,.87-.66,1.41-1.68,1.41a2.89,2.89,0,0,1-1.73-.57Z" transform="translate(-1.5 -0.95)"/><path class="cls-1" d="M185.1,21V17.42h-.85v-.9h.85V15h1.15v1.51h1.1v.9h-1.1V21Z" transform="translate(-1.5 -0.95)"/><path class="cls-1" d="M188.09,15.06a.69.69,0,0,1,.72-.72.72.72,0,1,1,0,1.43A.69.69,0,0,1,188.09,15.06Zm.15,5.93V16.52h1.15V21Z" transform="translate(-1.5 -0.95)"/><path class="cls-1" d="M191.17,21V17.42h-.85v-.9h.85V15h1.15v1.51h1.1v.9h-1.1V21Z" transform="translate(-1.5 -0.95)"/><path class="cls-1" d="M197.13,16.52h1.15v4a2.89,2.89,0,0,1-2,.62c-1.19,0-2-.58-2-1.73V16.52h1.15v2.61c0,.87.49,1.08,1,1.08a1.22,1.22,0,0,0,.73-.21Z" transform="translate(-1.5 -0.95)"/><path class="cls-1" d="M200,21V17.42h-.85v-.9H200V15h1.15v1.51h1.1v.9h-1.1V21Z" transform="translate(-1.5 -0.95)"/><path class="cls-1" d="M207.17,20.56a3.16,3.16,0,0,1-1.92.55,2.27,2.27,0,0,1-2.47-2.35,2.31,2.31,0,0,1,2.39-2.38,2.14,2.14,0,0,1,2.17,2.36v.44h-3.4c.12.83.87,1,1.57,1a2.06,2.06,0,0,0,1.33-.44Zm-1-2.24a1,1,0,0,0-1-1,1.21,1.21,0,0,0-1.24,1Z" transform="translate(-1.5 -0.95)"/><polygon class="cls-1" points="117.49 3.58 117.49 8.19 118.26 8.19 118.26 8.49 115.19 8.49 115.19 8.19 115.95 8.19 115.95 3.9 115.36 3.9 115.36 3.58 117.49 3.58"/><path class="cls-1" d="M88.69,1.56h-.28c0,.24-.14.34-.37.34-.47,0-1.17-.58-2-.58-2.31,0-3.71,2.28-3.71,4.28a3.75,3.75,0,0,0,3.56,4c1.35,0,1.86-.64,2.22-.64s.28.21.28.46h.31V6.68h-.31l-.07.38A2.53,2.53,0,0,1,86,9.33c-1.29,0-1.78-1.11-1.78-3.85s.68-3.84,1.82-3.84,2.17,1.44,2.35,2.59h.28Z" transform="translate(-1.5 -0.95)"/><path class="cls-1" d="M92.64,8.12c0,.59-.36,1.07-.88,1.07C91,9.19,91,8.55,91,8.07s.07-1,.79-1.06l.88-.09Zm2,.37c0,.29-.19.62-.32.62s-.25-.21-.25-.56V6c0-1.27-1.19-1.58-2.34-1.58S89.85,5,89.85,5.58a.67.67,0,0,0,.72.72.63.63,0,0,0,.68-.67c0-.57-.59-.57-.59-.59,0-.25.65-.33,1-.33.83,0,.95.31.95,1v.93l-1.09.09c-1,.08-2.11.35-2.11,1.5,0,1,.87,1.36,1.72,1.36a1.76,1.76,0,0,0,1.49-.7,1.14,1.14,0,0,0,1.11.7A1.07,1.07,0,0,0,95,8.49Z" transform="translate(-1.5 -0.95)"/><polygon class="cls-1" points="196.59 3.56 196.59 8.17 197.36 8.17 197.36 8.47 194.29 8.47 194.29 8.17 195.06 8.17 195.06 3.89 194.29 3.89 194.29 3.56 196.59 3.56"/><path class="cls-1" d="M131.42,6.89l1.84-5.27h2.54v.31h-.73v7.2h.73v.31h-3.05V9.14h.74V2h0l-2.59,7.43h-.3l-2.66-7.56h0V8.19c0,.9.23.95.83.95h0v.31h-1.92V9.14h0c.63,0,.75-.37.75-.85V1.94h-.75V1.62h2.79Z" transform="translate(-1.5 -0.95)"/><path class="cls-1" d="M137.57,6.45V5.7c0-.75.32-1,.7-1,.53,0,.7.37.7,1v.75Zm0,.3h3.07a2.44,2.44,0,0,0-2.29-2.34,2.54,2.54,0,0,0-2.45,2.64,2.44,2.44,0,0,0,2.48,2.52,2.21,2.21,0,0,0,2.29-1.95h-.3c-.24,1-.79,1.62-1.65,1.62-1,0-1.15-.81-1.15-1.57Z" transform="translate(-1.5 -0.95)"/><path class="cls-1" d="M183.78,6.43V5.69c0-.75.32-1,.7-1,.53,0,.7.37.7,1v.75Zm0,.3h3.07a2.44,2.44,0,0,0-2.29-2.34A2.54,2.54,0,0,0,182.11,7a2.44,2.44,0,0,0,2.48,2.52,2.21,2.21,0,0,0,2.29-1.95h-.3c-.24,1-.79,1.62-1.65,1.62-1,0-1.15-.81-1.15-1.57Z" transform="translate(-1.5 -0.95)"/><polygon class="cls-1" points="139.16 0.68 139.16 0.96 139.93 0.96 139.93 8.18 139.16 8.18 139.16 8.49 142.23 8.49 142.23 8.18 141.46 8.18 141.46 0.68 139.16 0.68"/><polygon class="cls-1" points="142.44 0.68 142.44 0.96 143.21 0.96 143.21 8.18 142.44 8.18 142.44 8.49 145.51 8.49 145.51 8.18 144.75 8.18 144.75 0.68 142.44 0.68"/><path class="cls-1" d="M150.55,8.1c0,.83-.34,1.18-.91,1.18s-.91-.34-.91-1.18V5.91c0-.83.34-1.18.91-1.18s.91.34.91,1.18ZM152.28,7a2.65,2.65,0,1,0-2.65,2.58A2.55,2.55,0,0,0,152.28,7" transform="translate(-1.5 -0.95)"/><path class="cls-1" d="M160.26,1.89H161V6.83a2.69,2.69,0,0,0,3,2.77c2,0,2.94-1.08,2.94-2.71V2.66c0-.64.18-.77.58-.77h.23v-.3h-2v.3H166c.57,0,.65.17.65.82V7a1.94,1.94,0,0,1-1.89,2.2c-1.62,0-1.95-1.09-2-2.51V1.89h.73v-.3h-3.14Z" transform="translate(-1.5 -0.95)"/><path class="cls-1" d="M179.53,9.55h.3l1.65-3.89c.33-.73.51-.82.77-.83h.1v-.3h-1.74v.31h.21c.32,0,.47,0,.47.27a1.8,1.8,0,0,1-.19.68l-.76,1.78-1.21-2.72h.62V4.53H177v.31h.52Z" transform="translate(-1.5 -0.95)"/><path class="cls-1" d="M191.92,9.55h.26a.36.36,0,0,1,.39-.27,7.68,7.68,0,0,0,1.26.27,1.81,1.81,0,0,0,1.78-1.82c0-1.36-.93-1.46-2.12-1.62-.62-.09-1-.18-1-.67s.46-.74,1.06-.74c.83,0,1.16.55,1.44,1.28h.26V4.39H195c0,.13-.12.24-.33.24s-.65-.24-1.16-.24A1.65,1.65,0,0,0,191.88,6c0,1.43,1.09,1.56,1.94,1.66s1.09.15,1.09.66-.49.86-1.09.86a1.81,1.81,0,0,1-1.63-1.54h-.26Z" transform="translate(-1.5 -0.95)"/><polygon class="cls-1" points="175.05 3.56 175.05 8.17 175.82 8.17 175.82 8.47 172.75 8.47 172.75 8.17 173.52 8.17 173.52 3.89 172.75 3.89 172.75 3.56 175.05 3.56"/><path class="cls-1" d="M175,3a.77.77,0,1,0,.77-.77A.76.76,0,0,0,175,3" transform="translate(-1.5 -0.95)"/><path class="cls-1" d="M196.56,3a.77.77,0,1,0,.77-.77.76.76,0,0,0-.77.77" transform="translate(-1.5 -0.95)"/><path class="cls-1" d="M108.05,6.45V5.7c0-.75.32-1,.7-1,.53,0,.7.37.7,1v.75Zm0,.3h3.07a2.44,2.44,0,0,0-2.29-2.34,2.54,2.54,0,0,0-2.45,2.64,2.44,2.44,0,0,0,2.48,2.52,2.21,2.21,0,0,0,2.29-1.95h-.3c-.24,1-.79,1.62-1.65,1.62-1,0-1.15-.81-1.15-1.57Z" transform="translate(-1.5 -0.95)"/><path class="cls-1" d="M121.48,6.45V5.7c0-.75.32-1,.7-1s.7.23.7,1v.75Zm0,.3h3.07a2.44,2.44,0,0,0-2.29-2.34,2.54,2.54,0,0,0-2.45,2.64,2.44,2.44,0,0,0,2.48,2.52,2.21,2.21,0,0,0,2.29-1.95h-.3c-.24,1-.79,1.62-1.65,1.62-1,0-1.15-.81-1.15-1.57Z" transform="translate(-1.5 -0.95)"/><path class="cls-1" d="M173.27,9.13v-3c0-1.2-.51-1.76-1.57-1.76a2,2,0,0,0-1.8,1.07h0v-.9h-2.3v.3h.77V9.13h-.77v.3h3v-.3h-.66V6.19c.1-.41.62-1.37,1.23-1.37.4,0,.61.14.61.89V9.13h-.63v.3H174v-.3Z" transform="translate(-1.5 -0.95)"/><path class="cls-1" d="M154.58,4.55v.9h0a2,2,0,0,1,1.8-1.07c1.06,0,1.57.56,1.57,1.76v3h.77v.3h-2.94v-.3h.63V5.73c0-.75-.2-.89-.61-.89-.61,0-1.13,1-1.23,1.37V9.14h.66v.3h-3v-.3H153V4.85h-.77v-.3Z" transform="translate(-1.5 -0.95)"/><path class="cls-1" d="M105.61,9.14v-3c0-1.2-.51-1.76-1.57-1.76a2,2,0,0,0-1.8,1.07h0v-.9h-2.3v.3h.77V9.14h-.77v.3h3v-.3h-.66V6.21c.1-.41.62-1.37,1.23-1.37.4,0,.61.14.61.89V9.14h-.63v.3h2.94v-.3Z" transform="translate(-1.5 -0.95)"/><path class="cls-1" d="M117.46,3a.77.77,0,1,0,.77-.77.76.76,0,0,0-.77.77" transform="translate(-1.5 -0.95)"/><path class="cls-1" d="M205.56,4.52v.32c.47,0,.68,0,.68.26a1.8,1.8,0,0,1-.19.68l-.76,1.78-1.21-2.71h.63V4.52h-3.83V2.13h-.2a2.24,2.24,0,0,1-1.92,2.39v.32h.59V8.28a1.22,1.22,0,0,0,1.22,1.27,1.58,1.58,0,0,0,1.48-.86l-.24-.13c-.13.2-.31.47-.59.47s-.34-.16-.34-.52V4.84h1.55l2,4.69-.7,1.66h0a.09.09,0,0,1-.08.05.09.09,0,0,1-.09-.06h0a.76.76,0,1,0-1.08.89h0l0,0a.77.77,0,0,0,.28.06c.65.05,1-.42,1.2-.91l.14-.33.47-1.11h0l.19-.45h0l1.56-3.7c.33-.73.46-.82.87-.82h0V4.52Z" transform="translate(-1.5 -0.95)"/><path class="cls-1" d="M98.81,4.36a1.59,1.59,0,0,0-1.47,1h0V4.56H95v.31h.77V9.15H95v.3h3.33v-.3h-1V6.76A2.45,2.45,0,0,1,98,4.91a.09.09,0,0,1,.15.09h0a1.07,1.07,0,0,0-.06.32.72.72,0,0,0,.76.72.8.8,0,0,0,.85-.81A.81.81,0,0,0,98.81,4.36Z" transform="translate(-1.5 -0.95)"/><path class="cls-1" d="M115.55,4.73s0,0,.07,0a0,0,0,0,1,0,.06h0a.48.48,0,0,0,0,.41.47.47,0,0,0,.34.3.48.48,0,0,0,.59-.47.52.52,0,0,0-.26-.43.91.91,0,0,0-.49-.13,1.32,1.32,0,0,0-.82.35h0l-.16-.1a2.4,2.4,0,0,0-1.23-.3A1.8,1.8,0,0,0,111.62,6a1.45,1.45,0,0,0,.92,1.36v0a1.22,1.22,0,0,0-1.11,1.28,1.06,1.06,0,0,0,.72,1.11v0a1.28,1.28,0,0,0-1,1.1c0,.82,1,1.46,2.2,1.46A2.39,2.39,0,0,0,116,10c0-1.08-.53-1.57-1.62-1.55h-1.85c-.28,0-.46,0-.46-.31s.43-.58.85-.58a.84.84,0,0,1,.23.07,1.43,1.43,0,0,0,.46.07,1.79,1.79,0,0,0,2-1.6A1.65,1.65,0,0,0,115.12,5a0,0,0,0,1,0-.06,2.27,2.27,0,0,1,.29-.19l.13-.06Zm-1.48,5.12c1.11,0,1.41,0,1.41.73s-1,1.56-2.12,1.56-1.48-.61-1.5-1.15a1.6,1.6,0,0,1,.54-1.13Zm.19-3.8c0,1.29-.3,1.34-.7,1.34s-.68-.09-.68-1.37c0-.9.1-1.28.68-1.28s.69,0,.7,1.31Z" transform="translate(-1.5 -0.95)"/><path class="cls-1" d="M190.74,4.32a1.59,1.59,0,0,0-1.47,1h0V4.52H187v.31h.77V9.11H187v.3h3.33v-.3h-1V6.71a2.45,2.45,0,0,1,.66-1.85.09.09,0,0,1,.15.09h0a1.07,1.07,0,0,0-.06.31.72.72,0,0,0,.76.72.8.8,0,0,0,.85-.81A.81.81,0,0,0,190.74,4.32Z" transform="translate(-1.5 -0.95)"/></svg>